<svg width="30" height="30" viewBox="0 0 30 30" fill="none" xmlns="http://www.w3.org/2000/svg">
<path d="M15.0933 28.2432H14.1289V21.7835L7.65332 22.6261V21.7835L8.61776 20.3792L2.55554 15.3238L3.24443 14.3408H4.34665L3.24443 10.4087H6.41332L7.65332 9.14489L11.2355 12.2343L10.2711 5.77459V5.07244L12.6133 6.47673V5.77459L14.5422 1L15.0933 1.56172L17.2978 5.77459L19.64 5.07244L17.9867 11.5322L18.6755 12.2343L21.9822 9.14489L22.9467 10.4087H26.6667L25.5644 14.3408L26.6667 15.3238L21.2933 20.3792V22.6261L15.0933 21.7835V28.2432Z" fill="#FF0000" stroke="black"/>
<path d="M1 15C1 22.732 7.26801 29 15 29C22.732 29 29 22.732 29 15C29 7.26801 22.732 1 15 1C7.26801 1 1 7.26801 1 15Z" stroke="black"/>
</svg>
